<?xml version="1.0" encoding="UTF-8"?><svg id="Layer_2" xmlns="http://www.w3.org/2000/svg" viewBox="0 0 145.91 45.13"><defs><style>.cls-1{fill:#fff;}</style></defs><g id="Layer_1-2"><g><g><path class="cls-1" d="M56.41,17.98c-.5-.13-.99-.2-1.47-.2-.85,0-1.53,.17-2.04,.51-.51,.34-.77,.79-.77,1.35,0,.49,.13,.89,.39,1.19,.26,.31,.58,.54,.96,.71s.9,.35,1.55,.56c.72,.21,1.31,.42,1.76,.63,.45,.2,.83,.51,1.13,.9,.31,.4,.46,.91,.46,1.55,0,.55-.15,1.04-.46,1.46-.31,.42-.74,.75-1.3,.98-.56,.23-1.21,.34-1.96,.34-.7,0-1.4-.14-2.08-.43-.68-.29-1.26-.66-1.73-1.13l.34-.57c.43,.46,.96,.82,1.59,1.08s1.26,.39,1.9,.39c.93,0,1.66-.19,2.2-.57,.54-.38,.81-.9,.81-1.54,0-.5-.13-.91-.4-1.22-.27-.31-.59-.55-.99-.73-.39-.17-.92-.36-1.57-.55-.73-.22-1.32-.44-1.75-.63-.43-.2-.8-.49-1.1-.88-.3-.39-.45-.89-.45-1.52,0-.51,.15-.96,.44-1.35,.29-.39,.7-.69,1.24-.9s1.15-.31,1.84-.31c.54,0,1.08,.08,1.63,.24,.55,.16,1.02,.37,1.43,.64l-.29,.58c-.39-.25-.83-.45-1.33-.58Z"/><path class="cls-1" d="M68.28,18.09c-.58-.23-1.19-.35-1.82-.35-.89,0-1.71,.21-2.46,.64-.75,.43-1.34,1.01-1.78,1.74-.44,.73-.66,1.54-.66,2.4s.22,1.67,.66,2.4c.44,.73,1.03,1.32,1.78,1.75,.75,.43,1.57,.65,2.46,.65,.63,0,1.24-.11,1.81-.34,.58-.23,1.09-.55,1.55-.97l.4,.44c-.5,.47-1.08,.84-1.74,1.1-.66,.27-1.34,.4-2.04,.4-1,0-1.92-.24-2.77-.73-.85-.48-1.52-1.14-2.01-1.97-.5-.83-.74-1.74-.74-2.72s.25-1.88,.74-2.72c.49-.83,1.17-1.49,2.01-1.97,.85-.48,1.77-.73,2.77-.73,.7,0,1.38,.13,2.03,.38,.65,.26,1.23,.61,1.74,1.07l-.38,.49c-.45-.42-.96-.74-1.55-.98Z"/><path class="cls-1" d="M80.78,27.9l-2.53-3.63c-.26,.04-.56,.06-.9,.06h-3.14v3.57h-.64v-10.7h3.78c1.33,0,2.35,.31,3.07,.92,.72,.61,1.08,1.48,1.08,2.6,0,.91-.22,1.66-.67,2.24-.45,.59-1.1,.99-1.96,1.2l2.68,3.73h-.77Zm-3.41-4.19c1.12,0,1.99-.25,2.59-.77,.61-.51,.91-1.24,.91-2.2s-.3-1.66-.91-2.16c-.61-.5-1.47-.75-2.59-.75h-3.15v5.88h3.15Z"/><path class="cls-1" d="M85.39,17.2h6.9v.63h-6.26v4.27h5.57v.64h-5.57v4.53h6.46v.63h-7.1v-10.7Z"/><path class="cls-1" d="M96.06,17.2h6.9v.63h-6.26v4.27h5.57v.64h-5.57v4.53h6.46v.63h-7.1v-10.7Z"/><path class="cls-1" d="M114.62,17.2h.63v10.7h-.75l-7.13-9.73v9.73h-.64v-10.7h.75l7.15,9.75v-9.75Z"/><path class="cls-1" d="M119.68,17.2h.64v10.7h-.64v-10.7Z"/><path class="cls-1" d="M132.66,17.2h.63v10.7h-.75l-7.13-9.73v9.73h-.64v-10.7h.75l7.15,9.75v-9.75Z"/><path class="cls-1" d="M145.33,22.65h.58v3.9c-.5,.44-1.08,.78-1.74,1.03-.66,.25-1.35,.37-2.05,.37-1,0-1.92-.24-2.77-.73s-1.52-1.15-2.01-1.98c-.5-.83-.74-1.74-.74-2.72s.25-1.88,.75-2.71,1.18-1.48,2.03-1.97c.85-.48,1.78-.73,2.78-.73,.7,0,1.38,.13,2.03,.37,.65,.25,1.23,.6,1.74,1.05l-.38,.47c-.45-.41-.96-.72-1.55-.95-.58-.22-1.19-.34-1.84-.34-.89,0-1.71,.22-2.46,.65-.75,.43-1.35,1.02-1.79,1.74-.44,.73-.67,1.53-.67,2.39s.22,1.68,.66,2.42c.44,.73,1.04,1.32,1.79,1.75,.75,.43,1.58,.65,2.46,.65,.58,0,1.15-.1,1.7-.29,.55-.19,1.05-.47,1.48-.83v-3.58Z"/></g><g><path class="cls-1" d="M56.41,35.02c-.5-.13-.99-.2-1.47-.2-.85,0-1.52,.17-2.03,.5-.51,.34-.77,.79-.77,1.35,0,.49,.13,.89,.39,1.19,.26,.31,.58,.54,.96,.71s.9,.35,1.55,.56c.72,.21,1.31,.42,1.76,.63,.45,.2,.83,.5,1.13,.9,.31,.4,.46,.91,.46,1.55,0,.55-.15,1.04-.46,1.46-.31,.42-.74,.75-1.3,.98-.56,.23-1.21,.34-1.96,.34-.7,0-1.4-.14-2.08-.43-.68-.29-1.26-.66-1.73-1.13l.34-.57c.43,.46,.96,.82,1.59,1.08s1.26,.39,1.9,.39c.93,0,1.66-.19,2.2-.57,.54-.38,.81-.89,.81-1.54,0-.5-.13-.9-.4-1.22-.27-.31-.59-.55-.99-.73-.39-.17-.92-.36-1.57-.55-.73-.22-1.32-.44-1.75-.63-.43-.2-.8-.49-1.1-.88-.3-.39-.45-.89-.45-1.51,0-.51,.15-.96,.44-1.35,.29-.39,.7-.69,1.24-.89s1.15-.31,1.84-.31c.54,0,1.08,.08,1.63,.24,.55,.16,1.02,.37,1.43,.63l-.29,.58c-.39-.25-.83-.45-1.33-.58Z"/><path class="cls-1" d="M62.05,34.24h6.9v.63h-6.26v4.27h5.57v.64h-5.57v4.53h6.46v.63h-7.1v-10.69Z"/><path class="cls-1" d="M79.92,44.94l-2.52-3.63c-.26,.04-.56,.06-.9,.06h-3.14v3.56h-.64v-10.69h3.78c1.33,0,2.35,.31,3.07,.92,.72,.61,1.08,1.48,1.08,2.6,0,.91-.22,1.65-.67,2.24-.45,.59-1.1,.99-1.96,1.2l2.68,3.73h-.76Zm-3.41-4.19c1.12,0,1.99-.25,2.59-.76,.61-.51,.91-1.24,.91-2.2s-.3-1.66-.91-2.16c-.61-.5-1.47-.75-2.59-.75h-3.15v5.87h3.15Z"/><path class="cls-1" d="M82.65,34.24h.72l4.05,9.93,4.07-9.93h.7l-4.44,10.69h-.67l-4.44-10.69Z"/><path class="cls-1" d="M94.92,34.24h.64v10.69h-.64v-10.69Z"/><path class="cls-1" d="M106.23,35.13c-.58-.23-1.19-.35-1.82-.35-.89,0-1.71,.21-2.46,.64-.75,.43-1.34,1.01-1.78,1.74-.44,.73-.66,1.54-.66,2.4s.22,1.67,.66,2.4c.44,.73,1.03,1.32,1.78,1.75,.75,.43,1.57,.65,2.46,.65,.63,0,1.24-.11,1.81-.34,.58-.23,1.09-.55,1.55-.97l.4,.44c-.5,.47-1.08,.84-1.74,1.1-.66,.27-1.34,.4-2.04,.4-1,0-1.92-.24-2.77-.73-.85-.48-1.52-1.14-2.01-1.97-.49-.83-.74-1.74-.74-2.72s.25-1.88,.74-2.72c.49-.83,1.16-1.49,2.01-1.97,.85-.48,1.77-.73,2.77-.73,.7,0,1.38,.13,2.03,.38,.65,.26,1.23,.61,1.74,1.07l-.38,.49c-.45-.42-.96-.74-1.55-.98Z"/><path class="cls-1" d="M111.52,34.24h6.9v.63h-6.26v4.27h5.57v.64h-5.57v4.53h6.46v.63h-7.1v-10.69Z"/><path class="cls-1" d="M126.47,35.02c-.5-.13-.99-.2-1.47-.2-.85,0-1.52,.17-2.03,.5-.51,.34-.76,.79-.76,1.35,0,.49,.13,.89,.39,1.19,.26,.31,.58,.54,.96,.71,.38,.17,.9,.35,1.55,.56,.72,.21,1.31,.42,1.76,.63,.45,.2,.83,.5,1.13,.9s.46,.91,.46,1.55c0,.55-.15,1.04-.46,1.46-.31,.42-.74,.75-1.3,.98-.56,.23-1.21,.34-1.96,.34-.7,0-1.4-.14-2.08-.43-.68-.29-1.26-.66-1.73-1.13l.34-.57c.43,.46,.96,.82,1.59,1.08,.63,.26,1.26,.39,1.9,.39,.93,0,1.66-.19,2.2-.57,.54-.38,.81-.89,.81-1.54,0-.5-.13-.9-.4-1.22-.27-.31-.59-.55-.99-.73-.39-.17-.92-.36-1.57-.55-.73-.22-1.32-.44-1.75-.63-.43-.2-.8-.49-1.1-.88-.3-.39-.45-.89-.45-1.51,0-.51,.15-.96,.44-1.35,.29-.39,.7-.69,1.24-.89,.54-.21,1.15-.31,1.84-.31,.54,0,1.08,.08,1.63,.24,.55,.16,1.02,.37,1.43,.63l-.29,.58c-.39-.25-.83-.45-1.33-.58Z"/></g><rect class="cls-1" y=".06" width="8.19" height="10.85" rx="1.79" ry="1.79" transform="translate(8.19 10.98) rotate(180)"/><rect class="cls-1" x="12.29" y=".06" width="8.19" height="28.16" rx="1.79" ry="1.79"/><rect class="cls-1" x="36.87" y="17.11" width="8.19" height="10.85" rx="1.79" ry="1.79" transform="translate(81.94 45.07) rotate(180)"/><rect class="cls-1" x="36.87" y="34.15" width="8.19" height="10.85" rx="1.79" ry="1.79" transform="translate(81.94 79.15) rotate(180)"/></g><g><g><path class="cls-1" d="M56.41,.87c-.5-.13-.99-.2-1.47-.2-.85,0-1.53,.17-2.04,.51-.51,.34-.77,.79-.77,1.35,0,.49,.13,.89,.39,1.19,.26,.31,.58,.54,.96,.71s.9,.35,1.55,.56c.72,.21,1.31,.42,1.76,.63,.45,.2,.83,.51,1.13,.9,.31,.4,.46,.91,.46,1.55,0,.55-.15,1.04-.46,1.46-.31,.42-.74,.75-1.3,.98-.56,.23-1.21,.34-1.96,.34-.7,0-1.4-.14-2.08-.43-.68-.29-1.26-.66-1.73-1.13l.34-.57c.43,.46,.96,.82,1.59,1.08s1.26,.39,1.9,.39c.93,0,1.66-.19,2.2-.57,.54-.38,.81-.9,.81-1.54,0-.5-.13-.91-.4-1.22-.27-.31-.59-.55-.99-.73-.39-.17-.92-.36-1.57-.55-.73-.22-1.32-.44-1.75-.64-.43-.2-.8-.49-1.1-.88-.3-.39-.45-.89-.45-1.51,0-.51,.15-.96,.44-1.35,.29-.39,.7-.69,1.24-.9,.54-.21,1.15-.31,1.84-.31,.54,0,1.08,.08,1.63,.24,.55,.16,1.02,.37,1.43,.64l-.29,.58c-.39-.25-.83-.45-1.33-.58Z"/><path class="cls-1" d="M62.05,.09h6.9V.72h-6.26V4.99h5.57v.64h-5.57v4.53h6.46v.63h-7.1V.09Z"/><path class="cls-1" d="M78.95,.98c-.58-.23-1.19-.35-1.82-.35-.89,0-1.71,.21-2.46,.64-.75,.43-1.34,1.01-1.78,1.74-.44,.73-.66,1.54-.66,2.4s.22,1.67,.66,2.4c.44,.73,1.03,1.32,1.78,1.75,.75,.43,1.57,.65,2.46,.65,.63,0,1.24-.11,1.81-.34,.58-.23,1.09-.55,1.55-.97l.4,.44c-.5,.47-1.08,.84-1.74,1.1-.66,.27-1.34,.4-2.04,.4-1,0-1.92-.24-2.77-.73-.85-.48-1.52-1.14-2.01-1.97-.5-.83-.74-1.74-.74-2.72s.25-1.88,.74-2.72c.49-.83,1.17-1.49,2.01-1.97,.85-.48,1.77-.73,2.77-.73,.7,0,1.38,.13,2.03,.38,.65,.26,1.23,.61,1.74,1.07l-.38,.49c-.45-.42-.96-.74-1.55-.98Z"/><path class="cls-1" d="M85.6,9.24c.65,.66,1.55,.99,2.72,.99s2.05-.33,2.7-.99c.65-.66,.97-1.58,.97-2.78V.09h.64V6.46c0,1.39-.38,2.47-1.13,3.24-.76,.77-1.82,1.16-3.18,1.16s-2.43-.38-3.19-1.16c-.76-.77-1.14-1.85-1.14-3.24V.09h.64V6.46c0,1.19,.32,2.12,.97,2.78Z"/><path class="cls-1" d="M104.01,10.79l-2.53-3.63c-.26,.04-.56,.06-.9,.06h-3.14v3.57h-.64V.09h3.78c1.33,0,2.35,.31,3.07,.92,.72,.61,1.08,1.48,1.08,2.6,0,.91-.22,1.66-.67,2.24-.45,.59-1.1,.99-1.96,1.2l2.68,3.73h-.77Zm-3.41-4.19c1.12,0,1.99-.25,2.59-.77,.61-.51,.91-1.24,.91-2.2s-.3-1.66-.91-2.16c-.61-.5-1.47-.75-2.59-.75h-3.15V6.6h3.15Z"/><path class="cls-1" d="M108.62,.09h6.9V.72h-6.26V4.99h5.57v.64h-5.57v4.53h6.46v.63h-7.1V.09Z"/></g><rect class="cls-1" y="16.97" width="8.19" height="28.16" rx="1.79" ry="1.79" transform="translate(8.19 62.1) rotate(180)"/><rect class="cls-1" x="12.29" y="34.28" width="8.19" height="10.85" rx="1.79" ry="1.79"/><rect class="cls-1" x="24.58" y=".32" width="8.19" height="44.81" rx="1.79" ry="1.79" transform="translate(57.36 45.46) rotate(180)"/><rect class="cls-1" x="36.87" y=".06" width="8.19" height="10.85" rx="1.79" ry="1.79" transform="translate(81.94 10.98) rotate(180)"/></g></g></svg>